<svg width="22" height="22" viewBox="0 0 22 22" fill="none" xmlns="http://www.w3.org/2000/svg">
<path d="M2.75 5.49999H4.58333M4.58333 5.49999H19.25M4.58333 5.49999V18.3333C4.58333 18.8196 4.77649 19.2859 5.1203 19.6297C5.46412 19.9735 5.93044 20.1667 6.41667 20.1667H15.5833C16.0696 20.1667 16.5359 19.9735 16.8797 19.6297C17.2235 19.2859 17.4167 18.8196 17.4167 18.3333V5.49999M7.33333 5.49999V3.66666C7.33333 3.18043 7.52649 2.71412 7.8703 2.3703C8.21412 2.02648 8.68044 1.83333 9.16667 1.83333H12.8333C13.3196 1.83333 13.7859 2.02648 14.1297 2.3703C14.4735 2.71412 14.6667 3.18043 14.6667 3.66666V5.49999M9.16667 10.0833V15.5833M12.8333 10.0833V15.5833" stroke="white" stroke-width="2" stroke-linecap="round" stroke-linejoin="round"/>
</svg>
